<mxfile type="device" compressed="false">
    <diagram id="Page-1" name="Page-1">
      <mxGraphModel dx="1360" dy="864" grid="1" gridSize="10" guides="1" tooltips="1" connect="1" arrows="1" fold="1" page="1" pageScale="1" pageWidth="827" pageHeight="1169" math="0" shadow="1">
        <root>
          <mxCell id="0" />   
          <mxCell id="1" parent="0" />
        <object id="usa1-core-01" label="usa1-core-01 IOSv" bottom_label="172.16.101.1" bottom_label_style="fillColor=#0000FF;fontColor=#FFFFFF;spacingTop=20">
      <mxCell style="rounded=1;whiteSpace=wrap;html=1;" vertex="1" parent="1">
          <mxGeometry x="785" y="458" width="120" height="60" as="geometry" />
      </mxCell>
    </object><object id="usa1-core-02" label="usa1-core-02 IOSv" bottom_label="172.16.101.2" bottom_label_style="fillColor=#0000FF;fontColor=#FFFFFF;spacingTop=20">
      <mxCell style="rounded=1;whiteSpace=wrap;html=1;" vertex="1" parent="1">
          <mxGeometry x="628" y="458" width="120" height="60" as="geometry" />
      </mxCell>
    </object><object id="usa1-access-02" label="usa1-access-02 IOSv" bottom_label="172.16.101.4" bottom_label_style="fillColor=#0000FF;fontColor=#FFFFFF;spacingTop=20">
      <mxCell style="rounded=1;whiteSpace=wrap;html=1;" vertex="1" parent="1">
          <mxGeometry x="680" y="406" width="120" height="60" as="geometry" />
      </mxCell>
    </object><object id="usa1-rtr-1" label="usa1-rtr-1 7206VXR" bottom_label="172.16.101.100" bottom_label_style="fillColor=#0000FF;fontColor=#FFFFFF;spacingTop=20">
      <mxCell style="rounded=1;whiteSpace=wrap;html=1;" vertex="1" parent="1">
          <mxGeometry x="837" y="406" width="120" height="60" as="geometry" />
      </mxCell>
    </object><object id="arista-1" label="arista-1 vEOS" bottom_label="172.16.101.21" bottom_label_style="fillColor=#0000FF;fontColor=#FFFFFF;spacingTop=20">
      <mxCell style="rounded=1;whiteSpace=wrap;html=1;" vertex="1" parent="1">
          <mxGeometry x="942" y="406" width="120" height="60" as="geometry" />
      </mxCell>
    </object><object id="usa2-rtr-1" label="usa2-rtr-1 7206VXR" bottom_label="172.16.128.2" bottom_label_style="fillColor=#0000FF;fontColor=#FFFFFF;spacingTop=20">
      <mxCell style="rounded=1;whiteSpace=wrap;html=1;" vertex="1" parent="1">
          <mxGeometry x="994" y="458" width="120" height="60" as="geometry" />
      </mxCell>
    </object><object id="arista-3" label="arista-3 vEOS" bottom_label="172.16.21.2" bottom_label_style="fillColor=#0000FF;fontColor=#FFFFFF;spacingTop=20">
      <mxCell style="rounded=1;whiteSpace=wrap;html=1;" vertex="1" parent="1">
          <mxGeometry x="1046" y="406" width="120" height="60" as="geometry" />
      </mxCell>
    </object><object id="arista-2" label="arista-2 vEOS" bottom_label="172.16.21.1" bottom_label_style="fillColor=#0000FF;fontColor=#FFFFFF;spacingTop=20">
      <mxCell style="rounded=1;whiteSpace=wrap;html=1;" vertex="1" parent="1">
          <mxGeometry x="1046" y="458" width="120" height="60" as="geometry" />
      </mxCell>
    </object><object id="usa2-core-01" label="usa2-core-01 IOSv" bottom_label="172.16.201.1" bottom_label_style="fillColor=#0000FF;fontColor=#FFFFFF;spacingTop=20">
      <mxCell style="rounded=1;whiteSpace=wrap;html=1;" vertex="1" parent="1">
          <mxGeometry x="1203" y="458" width="120" height="60" as="geometry" />
      </mxCell>
    </object><object id="usa2-core-02" label="usa2-core-02 IOSv" bottom_label="172.16.201.2" bottom_label_style="fillColor=#0000FF;fontColor=#FFFFFF;spacingTop=20">
      <mxCell style="rounded=1;whiteSpace=wrap;html=1;" vertex="1" parent="1">
          <mxGeometry x="1308" y="458" width="120" height="60" as="geometry" />
      </mxCell>
    </object><object id="usa2-access-02" label="usa2-access-02 IOSv" bottom_label="172.16.201.4" bottom_label_style="fillColor=#0000FF;fontColor=#FFFFFF;spacingTop=20">
      <mxCell style="rounded=1;whiteSpace=wrap;html=1;" vertex="1" parent="1">
          <mxGeometry x="1360" y="406" width="120" height="60" as="geometry" />
      </mxCell>
    </object><object id="usa2-access-01" label="usa2-access-01 IOSv" bottom_label="172.16.201.3" bottom_label_style="fillColor=#0000FF;fontColor=#FFFFFF;spacingTop=20">
      <mxCell style="rounded=1;whiteSpace=wrap;html=1;" vertex="1" parent="1">
          <mxGeometry x="1360" y="458" width="120" height="60" as="geometry" />
      </mxCell>
    </object><mxCell id="c1fd56884865782ae91254b7900457d0-src" value="Gi0/1" style="labelBackgroundColor=#ffffff;;" vertex="1" connectable="0" parent="c1fd56884865782ae91254b7900457d0">
      <mxGeometry x="-0.5" relative="1" as="geometry">
        <mxPoint as="offset" />
      </mxGeometry>
    </mxCell><mxCell id="c1fd56884865782ae91254b7900457d0-trgt" value="Gi0/1" style="labelBackgroundColor=#ffffff;;" vertex="1" connectable="0" parent="c1fd56884865782ae91254b7900457d0">
      <mxGeometry x="0.5" relative="-1" as="geometry">
        <mxPoint as="offset" />
      </mxGeometry>
    </mxCell><object id="c1fd56884865782ae91254b7900457d0" label="" src_label="Gi0/1" trgt_label="Gi0/1" source="usa1-core-01" target="usa1-core-02">
      <mxCell style="endArrow=none;" edge="1" parent="1" source="usa1-core-01" target="usa1-core-02">
          <mxGeometry relative="1" as="geometry" />
      </mxCell>
    </object><mxCell id="72d0ee07c7086df9411105f86f27553c-src" value="Gi0/2" style="labelBackgroundColor=#ffffff;;" vertex="1" connectable="0" parent="72d0ee07c7086df9411105f86f27553c">
      <mxGeometry x="-0.5" relative="1" as="geometry">
        <mxPoint as="offset" />
      </mxGeometry>
    </mxCell><mxCell id="72d0ee07c7086df9411105f86f27553c-trgt" value="Gi0/3" style="labelBackgroundColor=#ffffff;;" vertex="1" connectable="0" parent="72d0ee07c7086df9411105f86f27553c">
      <mxGeometry x="0.5" relative="-1" as="geometry">
        <mxPoint as="offset" />
      </mxGeometry>
    </mxCell><object id="72d0ee07c7086df9411105f86f27553c" label="" src_label="Gi0/2" trgt_label="Gi0/3" source="usa1-access-02" target="usa1-core-01">
      <mxCell style="endArrow=none;" edge="1" parent="1" source="usa1-access-02" target="usa1-core-01">
          <mxGeometry relative="1" as="geometry" />
      </mxCell>
    </object><mxCell id="457dd6447e9899b3aa8b370341919204-src" value="Gi0/0" style="labelBackgroundColor=#ffffff;;" vertex="1" connectable="0" parent="457dd6447e9899b3aa8b370341919204">
      <mxGeometry x="-0.5" relative="1" as="geometry">
        <mxPoint as="offset" />
      </mxGeometry>
    </mxCell><mxCell id="457dd6447e9899b3aa8b370341919204-trgt" value="Eth2/0" style="labelBackgroundColor=#ffffff;;" vertex="1" connectable="0" parent="457dd6447e9899b3aa8b370341919204">
      <mxGeometry x="0.5" relative="-1" as="geometry">
        <mxPoint as="offset" />
      </mxGeometry>
    </mxCell><object id="457dd6447e9899b3aa8b370341919204" label="" src_label="Gi0/0" trgt_label="Eth2/0" source="usa1-core-01" target="usa1-rtr-1">
      <mxCell style="endArrow=none;" edge="1" parent="1" source="usa1-core-01" target="usa1-rtr-1">
          <mxGeometry relative="1" as="geometry" />
      </mxCell>
    </object><mxCell id="addd5c18c85d35dcf13171d3bc6d4536-src" value="Eth1" style="labelBackgroundColor=#ffffff;;" vertex="1" connectable="0" parent="addd5c18c85d35dcf13171d3bc6d4536">
      <mxGeometry x="-0.5" relative="1" as="geometry">
        <mxPoint as="offset" />
      </mxGeometry>
    </mxCell><mxCell id="addd5c18c85d35dcf13171d3bc6d4536-trgt" value="Gi0/2" style="labelBackgroundColor=#ffffff;;" vertex="1" connectable="0" parent="addd5c18c85d35dcf13171d3bc6d4536">
      <mxGeometry x="0.5" relative="-1" as="geometry">
        <mxPoint as="offset" />
      </mxGeometry>
    </mxCell><object id="addd5c18c85d35dcf13171d3bc6d4536" label="" src_label="Eth1" trgt_label="Gi0/2" source="arista-1" target="usa1-core-01">
      <mxCell style="endArrow=none;" edge="1" parent="1" source="arista-1" target="usa1-core-01">
          <mxGeometry relative="1" as="geometry" />
      </mxCell>
    </object><mxCell id="f46c7e4ae1ee63391d8fea82a74e1870-src" value="Eth1/0" style="labelBackgroundColor=#ffffff;;" vertex="1" connectable="0" parent="f46c7e4ae1ee63391d8fea82a74e1870">
      <mxGeometry x="-0.5" relative="1" as="geometry">
        <mxPoint as="offset" />
      </mxGeometry>
    </mxCell><mxCell id="f46c7e4ae1ee63391d8fea82a74e1870-trgt" value="Eth1/0" style="labelBackgroundColor=#ffffff;;" vertex="1" connectable="0" parent="f46c7e4ae1ee63391d8fea82a74e1870">
      <mxGeometry x="0.5" relative="-1" as="geometry">
        <mxPoint as="offset" />
      </mxGeometry>
    </mxCell><object id="f46c7e4ae1ee63391d8fea82a74e1870" label="" src_label="Eth1/0" trgt_label="Eth1/0" source="usa1-rtr-1" target="usa2-rtr-1">
      <mxCell style="endArrow=none;" edge="1" parent="1" source="usa1-rtr-1" target="usa2-rtr-1">
          <mxGeometry relative="1" as="geometry" />
      </mxCell>
    </object><mxCell id="a98feaa877fb2d064494eb6af6d30ec8-src" value="Eth2" style="labelBackgroundColor=#ffffff;;" vertex="1" connectable="0" parent="a98feaa877fb2d064494eb6af6d30ec8">
      <mxGeometry x="-0.5" relative="1" as="geometry">
        <mxPoint as="offset" />
      </mxGeometry>
    </mxCell><mxCell id="a98feaa877fb2d064494eb6af6d30ec8-trgt" value="Eth1" style="labelBackgroundColor=#ffffff;;" vertex="1" connectable="0" parent="a98feaa877fb2d064494eb6af6d30ec8">
      <mxGeometry x="0.5" relative="-1" as="geometry">
        <mxPoint as="offset" />
      </mxGeometry>
    </mxCell><object id="a98feaa877fb2d064494eb6af6d30ec8" label="" src_label="Eth2" trgt_label="Eth1" source="arista-1" target="arista-3">
      <mxCell style="endArrow=none;" edge="1" parent="1" source="arista-1" target="arista-3">
          <mxGeometry relative="1" as="geometry" />
      </mxCell>
    </object><mxCell id="b013ae5366e6acb7db4534706f5eb971-src" value="Eth3" style="labelBackgroundColor=#ffffff;;" vertex="1" connectable="0" parent="b013ae5366e6acb7db4534706f5eb971">
      <mxGeometry x="-0.5" relative="1" as="geometry">
        <mxPoint as="offset" />
      </mxGeometry>
    </mxCell><mxCell id="b013ae5366e6acb7db4534706f5eb971-trgt" value="Eth1" style="labelBackgroundColor=#ffffff;;" vertex="1" connectable="0" parent="b013ae5366e6acb7db4534706f5eb971">
      <mxGeometry x="0.5" relative="-1" as="geometry">
        <mxPoint as="offset" />
      </mxGeometry>
    </mxCell><object id="b013ae5366e6acb7db4534706f5eb971" label="" src_label="Eth3" trgt_label="Eth1" source="arista-1" target="arista-2">
      <mxCell style="endArrow=none;" edge="1" parent="1" source="arista-1" target="arista-2">
          <mxGeometry relative="1" as="geometry" />
      </mxCell>
    </object><mxCell id="ac26cd4f55f258d138164233db0d1224-src" value="Gi0/0" style="labelBackgroundColor=#ffffff;;" vertex="1" connectable="0" parent="ac26cd4f55f258d138164233db0d1224">
      <mxGeometry x="-0.5" relative="1" as="geometry">
        <mxPoint as="offset" />
      </mxGeometry>
    </mxCell><mxCell id="ac26cd4f55f258d138164233db0d1224-trgt" value="Eth1/2" style="labelBackgroundColor=#ffffff;;" vertex="1" connectable="0" parent="ac26cd4f55f258d138164233db0d1224">
      <mxGeometry x="0.5" relative="-1" as="geometry">
        <mxPoint as="offset" />
      </mxGeometry>
    </mxCell><object id="ac26cd4f55f258d138164233db0d1224" label="" src_label="Gi0/0" trgt_label="Eth1/2" source="usa2-core-01" target="usa2-rtr-1">
      <mxCell style="endArrow=none;" edge="1" parent="1" source="usa2-core-01" target="usa2-rtr-1">
          <mxGeometry relative="1" as="geometry" />
      </mxCell>
    </object><mxCell id="3bff54021c1355c1f841bb79ca666d9d-src" value="Eth3" style="labelBackgroundColor=#ffffff;;" vertex="1" connectable="0" parent="3bff54021c1355c1f841bb79ca666d9d">
      <mxGeometry x="-0.5" relative="1" as="geometry">
        <mxPoint as="offset" />
      </mxGeometry>
    </mxCell><mxCell id="3bff54021c1355c1f841bb79ca666d9d-trgt" value="Eth3" style="labelBackgroundColor=#ffffff;;" vertex="1" connectable="0" parent="3bff54021c1355c1f841bb79ca666d9d">
      <mxGeometry x="0.5" relative="-1" as="geometry">
        <mxPoint as="offset" />
      </mxGeometry>
    </mxCell><object id="3bff54021c1355c1f841bb79ca666d9d" label="" src_label="Eth3" trgt_label="Eth3" source="arista-2" target="arista-3">
      <mxCell style="endArrow=none;" edge="1" parent="1" source="arista-2" target="arista-3">
          <mxGeometry relative="1" as="geometry" />
      </mxCell>
    </object><mxCell id="97280a4392e233deaab71b4763a8ed83-src" value="Gi0/1" style="labelBackgroundColor=#ffffff;;" vertex="1" connectable="0" parent="97280a4392e233deaab71b4763a8ed83">
      <mxGeometry x="-0.5" relative="1" as="geometry">
        <mxPoint as="offset" />
      </mxGeometry>
    </mxCell><mxCell id="97280a4392e233deaab71b4763a8ed83-trgt" value="Gi0/0" style="labelBackgroundColor=#ffffff;;" vertex="1" connectable="0" parent="97280a4392e233deaab71b4763a8ed83">
      <mxGeometry x="0.5" relative="-1" as="geometry">
        <mxPoint as="offset" />
      </mxGeometry>
    </mxCell><object id="97280a4392e233deaab71b4763a8ed83" label="" src_label="Gi0/1" trgt_label="Gi0/0" source="usa2-core-01" target="usa2-core-02">
      <mxCell style="endArrow=none;" edge="1" parent="1" source="usa2-core-01" target="usa2-core-02">
          <mxGeometry relative="1" as="geometry" />
      </mxCell>
    </object><mxCell id="395742eb7e4bd8465b95ea96dfe3f692-src" value="Gi0/0" style="labelBackgroundColor=#ffffff;;" vertex="1" connectable="0" parent="395742eb7e4bd8465b95ea96dfe3f692">
      <mxGeometry x="-0.5" relative="1" as="geometry">
        <mxPoint as="offset" />
      </mxGeometry>
    </mxCell><mxCell id="395742eb7e4bd8465b95ea96dfe3f692-trgt" value="Gi0/3" style="labelBackgroundColor=#ffffff;;" vertex="1" connectable="0" parent="395742eb7e4bd8465b95ea96dfe3f692">
      <mxGeometry x="0.5" relative="-1" as="geometry">
        <mxPoint as="offset" />
      </mxGeometry>
    </mxCell><object id="395742eb7e4bd8465b95ea96dfe3f692" label="" src_label="Gi0/0" trgt_label="Gi0/3" source="usa2-access-02" target="usa2-core-01">
      <mxCell style="endArrow=none;" edge="1" parent="1" source="usa2-access-02" target="usa2-core-01">
          <mxGeometry relative="1" as="geometry" />
      </mxCell>
    </object><mxCell id="c28e6d5a3a37c9de260a0d81fd52cfd0-src" value="Gi0/0" style="labelBackgroundColor=#ffffff;;" vertex="1" connectable="0" parent="c28e6d5a3a37c9de260a0d81fd52cfd0">
      <mxGeometry x="-0.5" relative="1" as="geometry">
        <mxPoint as="offset" />
      </mxGeometry>
    </mxCell><mxCell id="c28e6d5a3a37c9de260a0d81fd52cfd0-trgt" value="Gi0/2" style="labelBackgroundColor=#ffffff;;" vertex="1" connectable="0" parent="c28e6d5a3a37c9de260a0d81fd52cfd0">
      <mxGeometry x="0.5" relative="-1" as="geometry">
        <mxPoint as="offset" />
      </mxGeometry>
    </mxCell><object id="c28e6d5a3a37c9de260a0d81fd52cfd0" label="" src_label="Gi0/0" trgt_label="Gi0/2" source="usa2-access-01" target="usa2-core-01">
      <mxCell style="endArrow=none;" edge="1" parent="1" source="usa2-access-01" target="usa2-core-01">
          <mxGeometry relative="1" as="geometry" />
      </mxCell>
    </object><mxCell id="33858de4e99f8dc12e41453f7cfbbd8b-src" value="Gi0/1" style="labelBackgroundColor=#ffffff;;" vertex="1" connectable="0" parent="33858de4e99f8dc12e41453f7cfbbd8b">
      <mxGeometry x="-0.5" relative="1" as="geometry">
        <mxPoint as="offset" />
      </mxGeometry>
    </mxCell><mxCell id="33858de4e99f8dc12e41453f7cfbbd8b-trgt" value="Gi0/2" style="labelBackgroundColor=#ffffff;;" vertex="1" connectable="0" parent="33858de4e99f8dc12e41453f7cfbbd8b">
      <mxGeometry x="0.5" relative="-1" as="geometry">
        <mxPoint as="offset" />
      </mxGeometry>
    </mxCell><object id="33858de4e99f8dc12e41453f7cfbbd8b" label="" src_label="Gi0/1" trgt_label="Gi0/2" source="usa2-access-02" target="usa2-core-02">
      <mxCell style="endArrow=none;" edge="1" parent="1" source="usa2-access-02" target="usa2-core-02">
          <mxGeometry relative="1" as="geometry" />
      </mxCell>
    </object><mxCell id="d5ae643c3c7e844c1fe9dcc801d3ffcb-src" value="Gi0/1" style="labelBackgroundColor=#ffffff;;" vertex="1" connectable="0" parent="d5ae643c3c7e844c1fe9dcc801d3ffcb">
      <mxGeometry x="-0.5" relative="1" as="geometry">
        <mxPoint as="offset" />
      </mxGeometry>
    </mxCell><mxCell id="d5ae643c3c7e844c1fe9dcc801d3ffcb-trgt" value="Gi0/1" style="labelBackgroundColor=#ffffff;;" vertex="1" connectable="0" parent="d5ae643c3c7e844c1fe9dcc801d3ffcb">
      <mxGeometry x="0.5" relative="-1" as="geometry">
        <mxPoint as="offset" />
      </mxGeometry>
    </mxCell><object id="d5ae643c3c7e844c1fe9dcc801d3ffcb" label="" src_label="Gi0/1" trgt_label="Gi0/1" source="usa2-access-01" target="usa2-core-02">
      <mxCell style="endArrow=none;" edge="1" parent="1" source="usa2-access-01" target="usa2-core-02">
          <mxGeometry relative="1" as="geometry" />
      </mxCell>
    </object><mxCell id="e583db5fb02af855f7c642e9686d8817-src" value="Gi0/2" style="labelBackgroundColor=#ffffff;;" vertex="1" connectable="0" parent="e583db5fb02af855f7c642e9686d8817">
      <mxGeometry x="-0.5" relative="1" as="geometry">
        <mxPoint as="offset" />
      </mxGeometry>
    </mxCell><mxCell id="e583db5fb02af855f7c642e9686d8817-trgt" value="Gi0/2" style="labelBackgroundColor=#ffffff;;" vertex="1" connectable="0" parent="e583db5fb02af855f7c642e9686d8817">
      <mxGeometry x="0.5" relative="-1" as="geometry">
        <mxPoint as="offset" />
      </mxGeometry>
    </mxCell><object id="e583db5fb02af855f7c642e9686d8817" label="" src_label="Gi0/2" trgt_label="Gi0/2" source="usa2-access-01" target="usa2-access-02">
      <mxCell style="endArrow=none;" edge="1" parent="1" source="usa2-access-01" target="usa2-access-02">
          <mxGeometry relative="1" as="geometry" />
      </mxCell>
    </object></root>
      </mxGraphModel>
    </diagram></mxfile>